<svg width="171" height="65" viewBox="0 0 171 65" fill="none" xmlns="http://www.w3.org/2000/svg">
<path fill-rule="evenodd" clip-rule="evenodd" d="M56.6117 0H42.451L42.3661 63.8525H56.5267V40.7876C56.5267 35.0214 58.1977 31.9121 61.7945 31.9121C62.5754 31.8638 63.3537 32.0406 64.0366 32.4214C64.7195 32.8023 65.2783 33.3712 65.6462 34.0603C66.5475 36.0945 66.9551 38.3122 66.8357 40.5332V63.8525H80.9964V36.689C81.1715 31.9852 80.0026 27.3286 77.6261 23.2628C76.5123 21.584 74.9695 20.2325 73.1572 19.348C71.3449 18.4634 69.3287 18.078 67.3172 18.2315C65.3352 18.2092 63.3821 18.7062 61.6529 19.673C59.5666 20.9871 57.8355 22.7925 56.6117 24.9305V0ZM154.717 33.3262C155.107 34.1545 155.273 35.0708 155.198 35.9832L169.84 36.0963C169.774 34.2975 169.45 32.5175 168.877 30.8106C167.383 26.1518 164.106 22.2708 159.758 20.013C156.774 18.5447 153.483 17.8082 150.157 17.8648C145.869 17.6528 141.639 18.9204 138.177 21.4546C134.971 23.5497 132.559 26.6537 131.323 30.2735C129.871 34.0229 129.14 38.0123 129.171 42.0321C129.187 44.9547 129.587 47.8625 130.36 50.6814C131.34 53.2702 132.716 55.6921 134.438 57.861C136.145 60.0531 138.375 61.783 140.924 62.8923C143.806 64.1055 146.917 64.684 150.044 64.5882C155.085 64.8517 160.043 63.229 163.949 60.0374C165.887 58.3174 167.442 56.2115 168.516 53.8553C169.589 51.4991 170.156 48.9448 170.18 46.3568H155.425C154.971 50.6814 153.272 52.8296 150.157 52.8296C149.094 52.9134 148.033 52.6572 147.127 52.0981C146.22 51.539 145.516 50.7061 145.116 49.7204C143.993 47.1041 143.424 44.2845 143.445 41.4385C143.317 38.3916 143.888 35.3558 145.116 32.563C145.575 31.691 146.268 30.9642 147.119 30.4648C147.97 29.9653 148.944 29.7131 149.93 29.7365C150.655 29.7075 151.377 29.8455 152.04 30.1395C152.703 30.4336 153.289 30.876 153.754 31.4324C154.217 31.9808 154.547 32.6291 154.717 33.3262ZM110.113 31.6586C110.104 31.0519 109.969 30.4535 109.718 29.9011C109.466 29.3487 109.103 28.854 108.651 28.448C108.199 28.0421 107.668 27.7336 107.091 27.5419C106.514 27.3502 105.904 27.2794 105.299 27.3339C102.92 27.3339 101.475 28.295 101.475 30.4714C101.475 31.913 103.146 33.1002 106.262 34.0612L112.974 35.7289C114.579 36.144 116.116 36.7916 117.533 37.651C119.234 38.4784 120.762 39.6197 122.037 41.0146C123.278 42.6028 124.026 44.5188 124.189 46.5264C124.565 47.5539 124.794 48.6292 124.869 49.7205C124.804 52.6461 123.813 55.4761 122.037 57.8045C120.259 60.1147 117.849 61.8621 115.098 62.8358C111.883 64.0645 108.456 64.6411 105.015 64.5318C103.491 64.5803 101.965 64.4952 100.456 64.2774C98.9681 64.0597 97.5129 63.661 96.1225 63.0902C93.4662 62.157 91.149 60.4544 89.467 58.2002C87.674 55.5816 86.6894 52.4959 86.6349 49.3248H100.286C100.182 50.0791 100.252 50.8472 100.491 51.5705C100.729 52.2938 101.13 52.9532 101.663 53.4984C102.195 54.0436 102.846 54.4603 103.564 54.7167C104.283 54.9731 105.05 55.0624 105.808 54.9779C106.96 54.9918 108.074 54.5673 108.924 53.7907C109.299 53.53 109.625 53.2046 109.887 52.8297C110.112 52.3044 110.2 51.7305 110.142 51.162C110.107 50.457 109.858 49.7792 109.428 49.2187C108.998 48.6583 108.407 48.2418 107.734 48.0245C105.91 47.2096 104.014 46.5662 102.07 46.1025C99.6971 45.5613 97.3682 44.8432 95.1029 43.9542C93.0788 43.0871 91.3342 41.6784 90.0617 39.884C89.2245 38.9246 88.649 37.7662 88.3908 36.5203C87.9832 35.2042 87.82 33.8248 87.9093 32.4501C87.9015 30.0482 88.3934 27.6708 89.3537 25.4684C90.6788 23.1314 92.6436 21.2195 95.018 19.9566C98.2187 18.387 101.764 17.6482 105.327 17.8084C108.862 17.6934 112.38 18.3494 115.636 19.7304C117.922 20.8992 119.872 22.631 121.3 24.7617L121.445 25.1185C121.878 26.1895 122.311 27.2605 122.745 28.1254C123.007 29.3054 123.158 30.5071 123.198 31.7151L110.113 31.6586ZM14.1607 49.6638H0V63.7967H14.1607V49.6638ZM21.0989 49.4088H35.2595V63.57H21.0989V49.4088ZM35.2595 28.2941H21.0989V42.4553H35.2595V28.2941Z" fill="#014D9C"/>
</svg>
