<svg width="220" height="84" viewBox="0 0 220 84" fill="none" xmlns="http://www.w3.org/2000/svg">
<path fill-rule="evenodd" clip-rule="evenodd" d="M73.0073 0H54.7456L54.636 82.3447H72.8978V52.6C72.8978 45.1638 75.0526 41.1541 79.6911 41.1541C80.6981 41.0918 81.7018 41.3198 82.5825 41.811C83.4632 42.3022 84.1838 43.0359 84.6583 43.9245C85.8206 46.5477 86.3462 49.4078 86.1923 52.2719V82.3447H104.454V47.3145C104.68 41.2484 103.172 35.2433 100.108 29.9999C98.6713 27.8349 96.6817 26.092 94.3445 24.9513C92.0073 23.8106 89.4073 23.3135 86.8132 23.5114C84.2572 23.4827 81.7385 24.1237 79.5085 25.3705C76.8179 27.0652 74.5855 29.3934 73.0073 32.1505V0ZM199.524 42.9777C200.028 44.0459 200.242 45.2275 200.145 46.4042L219.028 46.55C218.942 44.2303 218.524 41.9347 217.786 39.7335C215.859 33.7255 211.632 28.7205 206.025 25.8089C202.178 23.9153 197.933 22.9655 193.644 23.0386C188.114 22.7652 182.659 24.3999 178.194 27.6679C174.061 30.3699 170.95 34.3728 169.356 39.0409C167.483 43.8762 166.541 49.0209 166.58 54.2049C166.601 57.9739 167.117 61.7239 168.114 65.3591C169.378 68.6977 171.152 71.8209 173.373 74.6179C175.574 77.4449 178.449 79.6758 181.737 81.1063C185.454 82.6709 189.466 83.4169 193.498 83.2934C199.999 83.6332 206.393 81.5406 211.431 77.4247C213.93 75.2065 215.936 72.4907 217.319 69.4522C218.703 66.4136 219.434 63.1196 219.466 59.782H200.437C199.853 65.3591 197.661 68.1295 193.644 68.1295C192.274 68.2375 190.905 67.9071 189.736 67.1861C188.567 66.4651 187.659 65.391 187.143 64.1198C185.695 60.7458 184.961 57.1096 184.988 53.4394C184.823 49.5101 185.56 45.5951 187.143 41.9935C187.735 40.8688 188.629 39.9316 189.727 39.2875C190.824 38.6434 192.079 38.3181 193.352 38.3483C194.287 38.311 195.218 38.4889 196.073 38.8681C196.928 39.2474 197.684 39.8179 198.282 40.5354C198.88 41.2426 199.305 42.0787 199.524 42.9777ZM142.003 40.8273C141.991 40.0448 141.817 39.2732 141.493 38.5607C141.168 37.8483 140.7 37.2104 140.117 36.6869C139.535 36.1634 138.85 35.7655 138.106 35.5183C137.362 35.2711 136.575 35.1798 135.794 35.2501C132.726 35.2501 130.863 36.4895 130.863 39.2963C130.863 41.1553 133.018 42.6863 137.036 43.9257L145.692 46.0763C147.763 46.6117 149.744 47.4468 151.572 48.555C153.765 49.6221 155.735 51.0939 157.379 52.8928C158.98 54.941 159.945 57.4119 160.155 60.0009C160.64 61.3259 160.935 62.7126 161.032 64.12C160.948 67.8929 159.67 71.5425 157.379 74.5452C155.086 77.5245 151.979 79.7779 148.431 81.0336C144.286 82.6182 139.865 83.3618 135.429 83.2208C133.463 83.2834 131.495 83.1736 129.548 82.8927C127.63 82.612 125.753 82.0979 123.96 81.3617C120.535 80.1582 117.546 77.9626 115.377 75.0555C113.065 71.6785 111.795 67.6992 111.725 63.6097H129.329C129.195 64.5825 129.286 65.5731 129.593 66.5058C129.901 67.4386 130.418 68.2889 131.105 68.992C131.792 69.6952 132.631 70.2325 133.557 70.5632C134.484 70.8938 135.473 71.009 136.451 70.9C137.937 70.9179 139.373 70.3705 140.469 69.369C140.953 69.0328 141.374 68.6131 141.711 68.1297C142.001 67.4523 142.115 66.7121 142.039 65.979C141.995 65.0698 141.674 64.1957 141.119 63.4729C140.565 62.7502 139.803 62.213 138.935 61.9329C136.582 60.882 134.137 60.0522 131.63 59.4542C128.57 58.7563 125.567 57.8302 122.645 56.6838C120.035 55.5655 117.785 53.7489 116.144 51.4347C115.065 50.1976 114.322 48.7036 113.989 47.097C113.464 45.3997 113.253 43.6207 113.368 41.8479C113.358 38.7504 113.993 35.6845 115.231 32.8443C116.94 29.8304 119.474 27.3649 122.536 25.7362C126.664 23.7121 131.236 22.7593 135.83 22.9658C140.39 22.8176 144.927 23.6635 149.125 25.4446C152.073 26.9519 154.588 29.1851 156.43 31.933L156.616 32.3931C157.175 33.7742 157.734 35.1554 158.292 36.2708C158.63 37.7925 158.826 39.3423 158.877 40.9002L142.003 40.8273ZM18.2617 64.0469H0V82.2728H18.2617V64.0469ZM27.2092 63.718H45.4709V81.9804H27.2092V63.718ZM45.4709 36.4884H27.2092V54.7507H45.4709V36.4884Z" fill="#014D9C"/>
</svg>
