<svg width="80" height="80" viewBox="0 0 80 80" fill="none" xmlns="http://www.w3.org/2000/svg">
<circle cx="40" cy="40" r="40" fill="white"/>
<g clip-path="url(#clip0_54_28)">
<path d="M20.6959 44.7108C23.2321 44.7108 25.5989 44.6959 27.9675 44.7157C29.2968 44.7272 30.0159 45.283 30.1382 46.3137C30.2925 47.6181 29.5197 48.4838 28.0832 48.4987C25.3743 48.5284 22.6638 48.5102 19.955 48.5102C19.1722 48.5102 18.3894 48.5366 17.6099 48.4921C16.6377 48.4377 15.6873 48.248 15.2213 47.2602C14.7553 46.2708 15.0788 45.3836 15.7225 44.5788C18.3123 41.34 20.9038 38.1029 23.4953 34.8641C23.6495 34.6712 23.797 34.4749 23.9478 34.2836C23.7903 34.0017 23.5388 34.1286 23.3427 34.127C21.5273 34.1154 19.7119 34.1286 17.8966 34.1138C17.4809 34.1105 17.0551 34.0775 16.6545 33.9753C15.8113 33.7576 15.3 33.0947 15.2933 32.3031C15.285 31.5148 15.7811 30.8437 16.6226 30.6095C17.0199 30.499 17.449 30.4611 17.863 30.4594C20.8518 30.4479 23.8406 30.4479 26.8293 30.4578C27.3573 30.4594 27.8887 30.4726 28.4016 30.6474C29.5348 31.0317 30.0343 32.0607 29.5733 33.1474C29.1727 34.0957 28.5324 34.9004 27.8937 35.7002C25.7029 38.4443 23.5036 41.1817 21.3077 43.9208C21.1368 44.1336 20.9742 44.3529 20.6959 44.7108Z" fill="#0180C7"/>
<path d="M40.1405 36.0317C40.5478 35.5254 40.9534 35.0505 41.644 34.912C42.9616 34.6481 44.2104 35.4891 44.2272 36.8068C44.2707 40.1033 44.2557 43.3998 44.2355 46.6963C44.2305 47.5967 43.6656 48.286 42.8409 48.563C41.9759 48.8516 41.0758 48.6422 40.4992 47.9248C40.2159 47.5736 40.0952 47.5142 39.7013 47.8275C38.1742 49.0445 36.4527 49.2573 34.5921 48.6636C31.6066 47.7104 30.378 45.4215 30.0528 42.6197C29.7041 39.6085 30.7233 37.0244 33.4623 35.4397C35.7369 34.1254 38.0485 34.2358 40.1405 36.0317ZM34.2149 42.0607C34.2317 42.628 34.4211 43.3899 34.9206 44.0528C36.0051 45.4924 38.2312 45.4875 39.3157 44.0495C40.2561 42.8028 40.2511 40.7349 39.3107 39.4882C38.8129 38.8302 38.1491 38.4855 37.321 38.4377C35.4821 38.3305 34.1965 39.7306 34.2149 42.0607Z" fill="#0180C7"/>
<path d="M51.7568 42.1514C51.6294 37.9166 54.4522 34.7536 58.4685 34.6316C62.7363 34.503 65.8675 37.3262 65.9949 41.4406C66.124 45.6079 63.5258 48.5646 59.5179 48.9604C55.1646 49.3908 51.6948 46.2691 51.7568 42.1514ZM55.9726 41.754C55.9676 42.5983 56.1704 43.3849 56.6867 44.0693C57.7461 45.471 59.9504 45.4825 61.0315 44.1006C62.0071 42.8539 62.0105 40.7365 61.0483 39.4766C60.5471 38.8203 59.88 38.4805 59.0536 38.4377C57.2432 38.342 55.9793 39.7042 55.9726 41.754Z" fill="#0180C7"/>
<path d="M50.2884 38.873C50.2884 41.4274 50.3018 43.9818 50.2834 46.5379C50.2733 47.999 48.9625 48.9868 47.5528 48.6372C46.7063 48.4277 46.0743 47.5438 46.0726 46.5148C46.0659 42.1464 46.0693 37.7797 46.0693 33.4113C46.0693 32.6428 46.0592 31.8727 46.0726 31.1042C46.0944 29.8344 46.9158 29.0115 48.1478 29C49.4218 28.9868 50.275 29.813 50.2834 31.1256C50.3002 33.7081 50.2884 36.2905 50.2884 38.873Z" fill="#0180C7"/>
</g>
<defs>
<clipPath id="clip0_54_28">
<rect width="51" height="20" fill="white" transform="translate(15 29)"/>
</clipPath>
</defs>
</svg>
